<?xml version="1.0" standalone="no"?>
<!DOCTYPE svg PUBLIC "-//W3C//DTD SVG 20010904//EN"
 "http://www.w3.org/TR/2001/REC-SVG-20010904/DTD/svg10.dtd">
<svg version="1.0" xmlns="http://www.w3.org/2000/svg"
 width="700.000000pt" height="700.000000pt" viewBox="0 0 700.000000 700.000000"
 preserveAspectRatio="xMidYMid meet">
<metadata>
Created by potrace 1.14, written by Peter Selinger 2001-2017
</metadata>
<g transform="translate(0.000000,700.000000) scale(0.100000,-0.100000)"
fill="#000000" stroke="none">
<path d="M0 3500 l0 -3500 3500 0 3500 0 0 3500 0 3500 -3500 0 -3500 0 0
-3500z m2950 1365 c16 -8 38 -27 47 -42 17 -25 18 -108 23 -1335 l5 -1308 53
25 52 24 0 1038 c0 1012 1 1039 20 1070 29 49 71 66 151 61 59 -3 72 -8 99
-33 17 -16 35 -45 40 -65 8 -28 30 -1347 30 -1748 l0 -103 40 28 40 28 0 1065
0 1066 23 44 c49 96 190 109 267 25 l25 -27 5 -963 5 -963 53 31 52 32 0 956
0 956 23 34 c33 50 80 71 150 66 66 -4 103 -26 129 -78 17 -32 18 -97 18 -926
l0 -891 43 5 c23 2 48 6 55 9 9 3 12 177 12 828 l0 825 31 35 c31 36 79 56
133 56 45 0 109 -36 131 -72 19 -32 20 -56 23 -874 l3 -840 49 -16 50 -16 0
636 c0 711 -3 681 70 730 30 20 45 23 103 20 62 -3 70 -6 105 -41 l37 -37 3
-750 c1 -413 1 -750 -2 -750 -2 0 -62 29 -132 64 -164 82 -279 120 -424 141
-316 47 -541 -37 -935 -349 -272 -214 -429 -317 -587 -381 -156 -64 -226 -78
-388 -78 -175 0 -250 17 -500 116 -91 35 -202 77 -247 93 l-83 29 0 531 0 531
23 34 c59 90 208 92 270 5 l22 -31 3 -571 3 -572 42 -16 c24 -9 46 -16 50 -16
3 0 8 456 9 1013 l3 1012 23 33 c13 18 36 39 52 47 42 22 138 19 177 -5 67
-40 63 31 63 -1133 l0 -1054 31 -7 c17 -3 42 -6 55 -6 l24 0 0 1331 c0 1197 2
1334 16 1365 19 40 33 52 81 70 44 16 110 11 153 -11z"/>
</g>
</svg>
