<svg width="126" height="109" viewBox="0 0 126 109" fill="none" xmlns="http://www.w3.org/2000/svg">
    <path d="M1.35425 96.8308C21.9849 106.904 36.2451 115.441 65.0052 92.0907C85.8847 75.0326 98.5561 69.0651 124.934 83.3343"
          stroke="white" stroke-width="3"/>
    <path d="M0 60.3013C0 56.9495 2.70673 54.2268 6.05847 54.2071V54.2071C9.43815 54.1873 12.1885 56.9215 12.1885 60.3013V102.925L0 98.4676V60.3013Z"
          fill="white"/>
    <path d="M16.2513 27.7627C16.2513 24.397 18.9798 21.6685 22.3456 21.6685V21.6685C25.7113 21.6685 28.4398 24.3969 28.4398 27.7627V106.988L16.2513 104.691V27.7627Z"
          fill="white"/>
    <path d="M32.5027 6.09425C32.5027 2.72849 35.2312 0 38.5969 0V0C41.9627 0 44.6912 2.72849 44.6912 6.09424V103.602L32.5027 106.988V6.09425Z"
          fill="white"/>
    <path d="M48.772 25.0632C48.762 21.6954 51.4894 18.96 54.8572 18.96V18.96C58.2179 18.96 60.9424 21.6844 60.9424 25.0452V93.4452L49 102L48.772 25.0632Z"
          fill="white"/>
    <path d="M65.0052 11.5112C65.0052 8.14547 67.7337 5.41699 71.0995 5.41699V5.41699C74.4652 5.41699 77.1937 8.14548 77.1937 11.5112V81.9336L65.0052 90.5L65.0052 11.5112Z"
          fill="white"/>
    <path d="M97.5079 14.22C97.5079 10.8542 100.236 8.12573 103.602 8.12573V8.12573C106.968 8.12573 109.696 10.8542 109.696 14.22V77.5L97.5079 75.8395V14.22Z"
          fill="white"/>
    <path d="M113.759 30.4712C113.759 27.1054 116.488 24.377 119.853 24.377V24.377C123.219 24.377 125.948 27.1054 125.948 30.4712V86.6737L113.759 79.9023V30.4712Z"
          fill="white"/>
    <path d="M81.2566 8.80274C81.2566 5.43698 83.9851 2.7085 87.3508 2.7085V2.7085C90.7166 2.7085 93.4451 5.43698 93.4451 8.80274V76.2765L81.2566 79.2251V8.80274Z"
          fill="white"/>
</svg>
